<?xml version="1.0" encoding="UTF-8"?>
<svg id="_Слой_1" data-name="Слой 1" xmlns="http://www.w3.org/2000/svg" viewBox="0 0 111.67 77.15">
  <defs>
    <style>
      .cls-1 {
        fill: #fff;
      }

      .cls-1, .cls-2 {
        stroke: #416fb5;
        stroke-miterlimit: 10;
        stroke-width: .5px;
      }

      .cls-2 {
        fill: none;
      }

      .cls-3 {
        fill: #030304;
      }

      .cls-4 {
        fill: #010101;
      }
    </style>
  </defs>
  <g>
    <line class="cls-1" x1="12.59" y1=".18" x2="16.16" y2="3.57"/>
    <line class="cls-2" x1="16.16" y1="3.35" x2="16.65" y2="49.23"/>
    <line class="cls-2" x1="16.65" y1="49.23" x2="17.88" y2="76.66"/>
    <line class="cls-2" x1="12.59" y1=".18" x2="12.12" y2="39.95"/>
    <line class="cls-2" x1="12.12" y1="39.95" x2="10.4" y2="77.14"/>
    <line class="cls-2" x1="12.12" y1="39.95" x2="7.72" y2="76.18"/>
    <line class="cls-2" x1="12.36" y1="8.05" x2="16.21" y2="8.05"/>
    <line class="cls-2" x1="12.36" y1="8.05" x2="8.08" y2="10.37"/>
    <line class="cls-2" x1="16.21" y1="8.05" x2="20.97" y2="10.37"/>
    <line class="cls-2" x1="8.08" y1="10.37" x2="20.97" y2="10.37"/>
    <line class="cls-2" x1="12.38" y1="17.68" x2="16.31" y2="17.62"/>
    <line class="cls-2" x1="12.38" y1="17.68" x2="1.19" y2="20.07"/>
    <line class="cls-2" x1="16.31" y1="17.62" x2="27.8" y2="20.07"/>
    <line class="cls-2" x1="1.19" y1="20.07" x2="27.8" y2="20.07"/>
    <line class="cls-2" x1="12.27" y1="27.48" x2="16.41" y2="27.42"/>
    <line class="cls-2" x1="12.27" y1="27.48" x2="7.72" y2="29.91"/>
    <line class="cls-2" x1="16.41" y1="27.42" x2="20.97" y2="29.91"/>
    <line class="cls-2" x1="7.72" y1="29.91" x2="20.97" y2="29.91"/>
    <line class="cls-2" x1="20.97" y1="10.37" x2="20.97" y2="13.93"/>
    <line class="cls-2" x1="20.14" y1="13.93" x2="21.8" y2="13.93"/>
    <line class="cls-2" x1="8.08" y1="10.37" x2="8.08" y2="13.93"/>
    <line class="cls-2" x1="7.07" y1="13.93" x2="8.67" y2="13.93"/>
    <line class="cls-2" x1="1.19" y1="20.07" x2="1.19" y2="23.62"/>
    <line class="cls-2" y1="23.62" x2="2.14" y2="23.62"/>
    <line class="cls-2" x1="27.8" y1="20.07" x2="27.8" y2="23.62"/>
    <line class="cls-2" x1="26.97" y1="23.62" x2="29.05" y2="23.62"/>
    <line class="cls-2" x1="7.72" y1="29.91" x2="7.72" y2="33.36"/>
    <line class="cls-2" x1="6.79" y1="33.36" x2="8.67" y2="33.36"/>
    <line class="cls-2" x1="20.97" y1="29.91" x2="20.97" y2="33.36"/>
    <line class="cls-2" x1="19.84" y1="33.36" x2="21.8" y2="33.36"/>
    <path class="cls-2" d="m27.8,23.62c5.4-.51,12.48-4.69,17.88-12.53"/>
    <path class="cls-2" d="m27.8,23.62c6.58.06,15.22-4.36,21.8-13.25"/>
    <path class="cls-2" d="m7.42,13.93c1.05-1.99,4.36-6.31,5.41-12.95"/>
    <path class="cls-2" d="m20.55,33.36s8.02,8.85,22.04-7.6"/>
    <path class="cls-2" d="m21.38,33.36s6.53,9.03,19.72-2.61"/>
    <path class="cls-2" d="m8.08,13.93s2.63,1.09,5.65-12.67"/>
    <path class="cls-2" d="m.77,23.62s4.63-1.07,5.08-4.55"/>
    <path class="cls-2" d="m.77,23.62s5.23,1.81,10.87-3.55"/>
    <path class="cls-2" d="m6.79,33.36s3.37,11.58,14.18-22.99"/>
    <path class="cls-2" d="m7.87,33.72s5.38,14.49,13.1-19.79"/>
    <path class="cls-2" d="m20.55,33.36c.83,3.62-3.62,13.9-3.62,13.9"/>
    <path class="cls-2" d="m16.93,49.87s3.33-2.27,4.87-16.51"/>
    <line class="cls-2" x1="7.87" y1="74.96" x2="10.67" y2="71.26"/>
    <line class="cls-2" x1="10.67" y1="71.26" x2="8.56" y2="69.26"/>
    <line class="cls-2" x1="8.56" y1="69.26" x2="10.67" y2="66.44"/>
    <line class="cls-2" x1="10.67" y1="66.44" x2="9.61" y2="61.93"/>
    <line class="cls-2" x1="9.61" y1="61.93" x2="11.22" y2="59.26"/>
    <line class="cls-2" x1="11.22" y1="59.26" x2="10.14" y2="55.69"/>
    <line class="cls-2" x1="17.81" y1="75.22" x2="10.93" y2="70.96"/>
    <line class="cls-2" x1="10.93" y1="70.96" x2="17.48" y2="67.85"/>
    <line class="cls-2" x1="17.48" y1="67.85" x2="10.93" y2="65.85"/>
    <line class="cls-2" x1="10.93" y1="65.85" x2="17.25" y2="62.58"/>
    <line class="cls-2" x1="17.25" y1="62.58" x2="11.26" y2="60.15"/>
    <line class="cls-2" x1="11.26" y1="60.15" x2="17.25" y2="57.77"/>
    <line class="cls-2" x1="17.25" y1="57.77" x2="11.41" y2="55.15"/>
    <line class="cls-2" x1="11.41" y1="55.15" x2="16.93" y2="52.9"/>
    <line class="cls-2" x1="16.93" y1="52.9" x2="11.66" y2="49.87"/>
    <line class="cls-2" x1="11.66" y1="49.87" x2="16.63" y2="47.26"/>
    <line class="cls-2" x1="16.63" y1="47.26" x2="11.9" y2="44.7"/>
    <line class="cls-2" x1="11.9" y1="44.7" x2="16.41" y2="42.21"/>
    <line class="cls-2" x1="16.41" y1="42.21" x2="12.12" y2="39.24"/>
    <line class="cls-2" x1="12.12" y1="39.24" x2="16.41" y2="37.28"/>
    <line class="cls-2" x1="16.41" y1="37.28" x2="12.18" y2="34.66"/>
    <line class="cls-2" x1="12.18" y1="34.66" x2="16.4" y2="32.05"/>
    <line class="cls-2" x1="16.4" y1="32.05" x2="12.59" y2="29.2"/>
    <line class="cls-2" x1="12.59" y1="29.2" x2="16.31" y2="26.29"/>
    <line class="cls-2" x1="16.31" y1="26.29" x2="12.38" y2="22.8"/>
    <line class="cls-2" x1="12.38" y1="22.8" x2="16.34" y2="20.41"/>
    <line class="cls-2" x1="16.34" y1="20.41" x2="12.59" y2="17.35"/>
    <line class="cls-2" x1="12.59" y1="17.35" x2="16.16" y2="15.24"/>
    <line class="cls-2" x1="16.16" y1="15.24" x2="12.59" y2="12.81"/>
    <line class="cls-2" x1="12.59" y1="12.81" x2="16.16" y2="10.37"/>
    <line class="cls-2" x1="16.16" y1="10.37" x2="12.83" y2="6.98"/>
    <line class="cls-2" x1="12.83" y1="6.98" x2="16.34" y2="5.32"/>
    <line class="cls-2" x1="17.25" y1="65.37" x2="11.04" y2="63.24"/>
    <line class="cls-2" x1="11.04" y1="63.24" x2="17.14" y2="60.15"/>
    <line class="cls-2" x1="17.14" y1="60.15" x2="11.22" y2="58.07"/>
    <line class="cls-2" x1="11.22" y1="58.07" x2="16.93" y2="55.15"/>
    <line class="cls-2" x1="16.93" y1="55.15" x2="11.5" y2="53.19"/>
    <line class="cls-2" x1="11.5" y1="53.19" x2="16.34" y2="50.35"/>
    <line class="cls-2" x1="16.34" y1="50.35" x2="11.76" y2="47.61"/>
    <line class="cls-2" x1="11.76" y1="47.61" x2="16.34" y2="44.7"/>
    <line class="cls-2" x1="16.34" y1="44.7" x2="11.76" y2="42.88"/>
    <line class="cls-2" x1="11.76" y1="42.88" x2="16.34" y2="39.95"/>
    <line class="cls-2" x1="16.34" y1="39.95" x2="12.27" y2="37.28"/>
    <line class="cls-2" x1="12.27" y1="37.28" x2="16.16" y2="34.25"/>
    <line class="cls-2" x1="16.16" y1="34.25" x2="12.59" y2="32.05"/>
    <line class="cls-2" x1="12.59" y1="32.05" x2="16.16" y2="29.56"/>
    <line class="cls-2" x1="16.16" y1="29.56" x2="12.36" y2="26.29"/>
    <line class="cls-2" x1="12.36" y1="26.29" x2="16.16" y2="23.62"/>
    <line class="cls-2" x1="16.16" y1="23.62" x2="12.59" y2="20.07"/>
    <line class="cls-2" x1="12.59" y1="20.07" x2="16.16" y2="17.35"/>
    <line class="cls-2" x1="16.16" y1="17.35" x2="12.83" y2="14.53"/>
    <line class="cls-2" x1="12.83" y1="14.53" x2="16.16" y2="12.81"/>
    <line class="cls-2" x1="16.16" y1="12.81" x2="12.83" y2="10.37"/>
    <line class="cls-2" x1="12.83" y1="10.37" x2="16.21" y2="8.05"/>
    <line class="cls-2" x1="16.21" y1="8.05" x2="13.08" y2="4.05"/>
    <line class="cls-2" x1="13.08" y1="4.05" x2="15.35" y2="2.8"/>
  </g>
  <g>
    <path class="cls-4" d="m28.84,63.09h-6.1v-7.7h6.1v1.54h-4.12v1.49h3.24v1.54h-3.24v1.59h4.12v1.54Z"/>
    <path class="cls-4" d="m36.43,63.09h-1.98v-3.13h-2.75v3.13h-1.98v-7.7h1.98v3.03h2.75v-3.03h1.98v7.7Z"/>
    <path class="cls-4" d="m43.85,63.09h-6.11v-7.7h6.11v1.54h-4.12v1.49h3.24v1.54h-3.24v1.59h4.12v1.54Z"/>
    <path class="cls-4" d="m44.73,55.39h4.62c.77,0,1.33.17,1.68.52.35.35.52.91.52,1.68v1.1c0,.77-.17,1.33-.52,1.68-.35.35-.91.52-1.68.52h-2.64v2.2h-1.98v-7.7Zm4.84,2.2c0-.44-.22-.66-.66-.66h-2.2v2.42h2.2c.44,0,.66-.22.66-.66v-1.1Z"/>
    <path class="cls-4" d="m54.52,63.09h-1.98v-7.7h5.99v1.54h-4.01v6.16Z"/>
    <path class="cls-4" d="m65.41,63.09h-6.1v-7.7h6.1v1.54h-4.12v1.49h3.24v1.54h-3.24v1.59h4.12v1.54Z"/>
    <path class="cls-4" d="m70.03,63.09h-1.98v-6.16h-2.31v-1.54h6.6v1.54h-2.31v6.16Z"/>
    <path class="cls-4" d="m79.82,63.09h-1.98v-4.73l-2.64,4.73h-2.09v-7.7h1.98v4.73l2.64-4.73h2.09v7.7Z"/>
    <path class="cls-4" d="m82.9,58.55c0,.17.05.3.15.4.1.1.23.15.4.15h1.4c.25,0,.5-.02.75-.07v-3.63h1.98v7.7h-1.98v-2.54c-.26.05-.54.07-.84.07h-1.75c-.72,0-1.25-.17-1.58-.5-.34-.33-.51-.86-.51-1.57v-3.16h1.98v3.15Z"/>
    <path class="cls-4" d="m95.61,63.09h-1.98v-3.13h-2.75v3.13h-1.98v-7.7h1.98v3.03h2.75v-3.03h1.98v7.7Z"/>
    <path class="cls-4" d="m103.64,63.09h-1.98v-4.73l-2.64,4.73h-2.09v-7.7h1.98v4.73l2.64-4.73h2.09v7.7Z"/>
    <path class="cls-4" d="m109.69,63.09v-4.73l-2.64,4.73h-2.09v-7.7h1.98v4.73l2.64-4.73h2.09v7.7h-1.98Zm-1.98-8.25c-.95,0-1.43-.48-1.43-1.43v-.33h1.43v.27c0,.11.04.2.11.27.07.07.17.11.27.11h.33c.11,0,.2-.04.27-.11.07-.07.11-.17.11-.27v-.27h1.43v.33c0,.95-.48,1.43-1.43,1.43h-1.1Z"/>
  </g>
  <g>
    <path class="cls-3" d="m24.71,71.66h2.64c.77,0,1.33.17,1.68.52.35.35.52.91.52,1.68v.33c0,.77-.17,1.33-.52,1.68-.35.35-.91.52-1.68.52h-4.62v-7.7h6.1v1.54h-4.12v1.43Zm2.86,2.2c0-.44-.22-.66-.66-.66h-2.2v1.65h2.2c.44,0,.66-.22.66-.66v-.33Z"/>
    <path class="cls-3" d="m34.17,76.39h-3.96v-1.54h.99v-4.62h-.99v-1.54h3.96v1.54h-.99v4.62h.99v1.54Z"/>
    <path class="cls-3" d="m41.21,74.38c0,.71-.17,1.22-.51,1.55-.34.33-.87.5-1.58.5h-2.86c-.51,0-1.03-.05-1.54-.14v-1.41h3.96c.17,0,.3-.05.4-.14.1-.09.15-.22.15-.38v-.42c0-.42-.22-.62-.66-.62h-2.64v-1.54h2.42c.44,0,.66-.22.66-.66v-.22c0-.44-.22-.66-.66-.66h-3.52v-1.54h4.07c.72,0,1.25.16,1.58.49.34.33.51.82.51,1.49,0,.44-.1.8-.3,1.07-.2.28-.47.47-.8.58.16.04.32.11.48.21.16.09.3.22.42.38.12.16.22.35.3.58.08.23.12.49.12.78v.11Z"/>
    <path class="cls-3" d="m48.91,76.39h-1.98v-3.13h-2.75v3.13h-1.98v-7.7h1.98v3.03h2.75v-3.03h1.98v7.7Z"/>
    <path class="cls-3" d="m56.34,76.39h-6.1v-7.7h6.1v1.54h-4.12v1.49h3.24v1.54h-3.24v1.59h4.12v1.54Z"/>
    <path class="cls-3" d="m59.09,76.43c-.72,0-1.25-.17-1.58-.5-.34-.33-.51-.86-.51-1.57v-3.49c0-.76.17-1.32.52-1.66.35-.34.91-.52,1.68-.52h3.96v1.54h-3.52c-.44,0-.66.22-.66.66v3.5c0,.17.05.3.15.4.1.1.23.15.4.15h1.66c.2,0,.4-.03.59-.09h1.39v1.44c-.49.09-.98.14-1.46.14h-2.61Z"/>
  </g>
</svg>