<svg width="133" height="92" viewBox="0 0 133 92" fill="none" xmlns="http://www.w3.org/2000/svg">
<g clip-path="url(#clip0_130_2)">
<path d="M14.9949 0.214645L19.2468 4.25716" stroke="#416FB5" stroke-width="0.5" stroke-miterlimit="10"/>
<path d="M19.2468 3.99481L19.8304 58.7059" stroke="#416FB5" stroke-width="0.5" stroke-miterlimit="10"/>
<path d="M19.8303 58.7059L21.2953 91.4157" stroke="#416FB5" stroke-width="0.5" stroke-miterlimit="10"/>
<path d="M14.9948 0.214645L14.4351 47.6397" stroke="#416FB5" stroke-width="0.5" stroke-miterlimit="10"/>
<path d="M14.435 47.6397L12.3865 91.9881" stroke="#416FB5" stroke-width="0.5" stroke-miterlimit="10"/>
<path d="M14.435 47.6397L9.19458 90.8433" stroke="#416FB5" stroke-width="0.5" stroke-miterlimit="10"/>
<path d="M14.7209 9.59949H19.3063" stroke="#416FB5" stroke-width="0.5" stroke-miterlimit="10"/>
<path d="M14.7208 9.59949L9.62329 12.366" stroke="#416FB5" stroke-width="0.5" stroke-miterlimit="10"/>
<path d="M19.3062 9.59949L24.9754 12.366" stroke="#416FB5" stroke-width="0.5" stroke-miterlimit="10"/>
<path d="M9.62329 12.366H24.9754" stroke="#416FB5" stroke-width="0.5" stroke-miterlimit="10"/>
<path d="M14.7446 21.0831L19.4253 21.0115" stroke="#416FB5" stroke-width="0.5" stroke-miterlimit="10"/>
<path d="M14.7446 21.0831L1.41724 23.9331" stroke="#416FB5" stroke-width="0.5" stroke-miterlimit="10"/>
<path d="M19.4253 21.0115L33.11 23.9331" stroke="#416FB5" stroke-width="0.5" stroke-miterlimit="10"/>
<path d="M1.41724 23.9331H33.11" stroke="#416FB5" stroke-width="0.5" stroke-miterlimit="10"/>
<path d="M14.6138 32.7694L19.5445 32.6979" stroke="#416FB5" stroke-width="0.5" stroke-miterlimit="10"/>
<path d="M14.6137 32.7694L9.19458 35.6671" stroke="#416FB5" stroke-width="0.5" stroke-miterlimit="10"/>
<path d="M19.5444 32.6979L24.9754 35.6671" stroke="#416FB5" stroke-width="0.5" stroke-miterlimit="10"/>
<path d="M9.19458 35.6671H24.9755" stroke="#416FB5" stroke-width="0.5" stroke-miterlimit="10"/>
<path d="M24.9756 12.366V16.6113" stroke="#416FB5" stroke-width="0.5" stroke-miterlimit="10"/>
<path d="M23.9868 16.6113H25.9639" stroke="#416FB5" stroke-width="0.5" stroke-miterlimit="10"/>
<path d="M9.62329 12.366V16.6113" stroke="#416FB5" stroke-width="0.5" stroke-miterlimit="10"/>
<path d="M8.42041 16.6113H10.326" stroke="#416FB5" stroke-width="0.5" stroke-miterlimit="10"/>
<path d="M1.41724 23.9331V28.1664" stroke="#416FB5" stroke-width="0.5" stroke-miterlimit="10"/>
<path d="M0 28.1664H2.54876" stroke="#416FB5" stroke-width="0.5" stroke-miterlimit="10"/>
<path d="M33.1101 23.9331V28.1664" stroke="#416FB5" stroke-width="0.5" stroke-miterlimit="10"/>
<path d="M32.1216 28.1664H34.5989" stroke="#416FB5" stroke-width="0.5" stroke-miterlimit="10"/>
<path d="M9.19458 35.6671V39.7812" stroke="#416FB5" stroke-width="0.5" stroke-miterlimit="10"/>
<path d="M8.08691 39.7812H10.326" stroke="#416FB5" stroke-width="0.5" stroke-miterlimit="10"/>
<path d="M24.9756 35.6671V39.7812" stroke="#416FB5" stroke-width="0.5" stroke-miterlimit="10"/>
<path d="M23.6296 39.7812H25.964" stroke="#416FB5" stroke-width="0.5" stroke-miterlimit="10"/>
<path d="M33.1101 28.1664C39.5416 27.5583 47.9739 22.5737 54.4054 13.2246" stroke="#416FB5" stroke-width="0.5" stroke-miterlimit="10"/>
<path d="M33.1101 28.1664C40.9469 28.238 51.2373 22.9672 59.0741 12.366" stroke="#416FB5" stroke-width="0.5" stroke-miterlimit="10"/>
<path d="M8.8374 16.6113C10.088 14.2382 14.0302 9.08671 15.2808 1.16862" stroke="#416FB5" stroke-width="0.5" stroke-miterlimit="10"/>
<path d="M24.4753 39.7812C24.4753 39.7812 34.0272 50.3347 50.7252 30.7183" stroke="#416FB5" stroke-width="0.5" stroke-miterlimit="10"/>
<path d="M25.4639 39.7812C25.4639 39.7812 33.2412 50.5493 48.9506 36.6688" stroke="#416FB5" stroke-width="0.5" stroke-miterlimit="10"/>
<path d="M9.62329 16.6113C9.62329 16.6113 12.7556 17.9111 16.3525 1.50253" stroke="#416FB5" stroke-width="0.5" stroke-miterlimit="10"/>
<path d="M0.916992 28.1664C0.916992 28.1664 6.43137 26.8905 6.96732 22.7406" stroke="#416FB5" stroke-width="0.5" stroke-miterlimit="10"/>
<path d="M0.916992 28.1664C0.916992 28.1664 7.14597 30.3248 13.8633 23.9331" stroke="#416FB5" stroke-width="0.5" stroke-miterlimit="10"/>
<path d="M8.08691 39.7812C8.08691 39.7812 12.1006 53.5902 24.9754 12.366" stroke="#416FB5" stroke-width="0.5" stroke-miterlimit="10"/>
<path d="M9.37329 40.2105C9.37329 40.2105 15.7809 57.4896 24.9755 16.6113" stroke="#416FB5" stroke-width="0.5" stroke-miterlimit="10"/>
<path d="M24.4753 39.7812C25.4638 44.098 20.1638 56.3567 20.1638 56.3567" stroke="#416FB5" stroke-width="0.5" stroke-miterlimit="10"/>
<path d="M20.1638 59.4691C20.1638 59.4691 24.1299 56.7621 25.964 39.7812" stroke="#416FB5" stroke-width="0.5" stroke-miterlimit="10"/>
<path d="M9.37329 89.3885L12.7081 84.9763" stroke="#416FB5" stroke-width="0.5" stroke-miterlimit="10"/>
<path d="M12.7081 84.9763L10.1951 82.5913" stroke="#416FB5" stroke-width="0.5" stroke-miterlimit="10"/>
<path d="M10.1951 82.5913L12.7081 79.2285" stroke="#416FB5" stroke-width="0.5" stroke-miterlimit="10"/>
<path d="M12.708 79.2285L11.4456 73.8504" stroke="#416FB5" stroke-width="0.5" stroke-miterlimit="10"/>
<path d="M11.4456 73.8504L13.3631 70.6665" stroke="#416FB5" stroke-width="0.5" stroke-miterlimit="10"/>
<path d="M13.3632 70.6665L12.0769 66.4093" stroke="#416FB5" stroke-width="0.5" stroke-miterlimit="10"/>
<path d="M21.212 89.6985L13.0178 84.6185" stroke="#416FB5" stroke-width="0.5" stroke-miterlimit="10"/>
<path d="M13.0178 84.6185L20.8189 80.9099" stroke="#416FB5" stroke-width="0.5" stroke-miterlimit="10"/>
<path d="M20.8189 80.9099L13.0178 78.5249" stroke="#416FB5" stroke-width="0.5" stroke-miterlimit="10"/>
<path d="M13.0178 78.5249L20.545 74.6255" stroke="#416FB5" stroke-width="0.5" stroke-miterlimit="10"/>
<path d="M20.5448 74.6255L13.4106 71.7278" stroke="#416FB5" stroke-width="0.5" stroke-miterlimit="10"/>
<path d="M13.4106 71.7278L20.5448 68.8897" stroke="#416FB5" stroke-width="0.5" stroke-miterlimit="10"/>
<path d="M20.5448 68.8897L13.5894 65.7654" stroke="#416FB5" stroke-width="0.5" stroke-miterlimit="10"/>
<path d="M13.5894 65.7654L20.1637 63.0823" stroke="#416FB5" stroke-width="0.5" stroke-miterlimit="10"/>
<path d="M20.1638 63.0823L13.8872 59.4691" stroke="#416FB5" stroke-width="0.5" stroke-miterlimit="10"/>
<path d="M13.8872 59.4691L19.8065 56.3567" stroke="#416FB5" stroke-width="0.5" stroke-miterlimit="10"/>
<path d="M19.8066 56.3567L14.1731 53.304" stroke="#416FB5" stroke-width="0.5" stroke-miterlimit="10"/>
<path d="M14.1731 53.304L19.5445 50.3347" stroke="#416FB5" stroke-width="0.5" stroke-miterlimit="10"/>
<path d="M19.5445 50.3347L14.4351 46.793" stroke="#416FB5" stroke-width="0.5" stroke-miterlimit="10"/>
<path d="M14.4351 46.793L19.5445 44.4557" stroke="#416FB5" stroke-width="0.5" stroke-miterlimit="10"/>
<path d="M19.5446 44.4557L14.5066 41.3314" stroke="#416FB5" stroke-width="0.5" stroke-miterlimit="10"/>
<path d="M14.5066 41.3314L19.5327 38.2191" stroke="#416FB5" stroke-width="0.5" stroke-miterlimit="10"/>
<path d="M19.5326 38.2191L14.9949 34.8205" stroke="#416FB5" stroke-width="0.5" stroke-miterlimit="10"/>
<path d="M14.9949 34.8205L19.4254 31.3504" stroke="#416FB5" stroke-width="0.5" stroke-miterlimit="10"/>
<path d="M19.4253 31.3503L14.7446 27.1886" stroke="#416FB5" stroke-width="0.5" stroke-miterlimit="10"/>
<path d="M14.7446 27.1886L19.461 24.3386" stroke="#416FB5" stroke-width="0.5" stroke-miterlimit="10"/>
<path d="M19.4612 24.3386L14.9949 20.6896" stroke="#416FB5" stroke-width="0.5" stroke-miterlimit="10"/>
<path d="M14.9949 20.6896L19.2468 18.1734" stroke="#416FB5" stroke-width="0.5" stroke-miterlimit="10"/>
<path d="M19.2468 18.1734L14.9949 15.2757" stroke="#416FB5" stroke-width="0.5" stroke-miterlimit="10"/>
<path d="M14.9949 15.2757L19.2468 12.366" stroke="#416FB5" stroke-width="0.5" stroke-miterlimit="10"/>
<path d="M19.2468 12.366L15.2808 8.32352" stroke="#416FB5" stroke-width="0.5" stroke-miterlimit="10"/>
<path d="M15.2808 8.32353L19.4612 6.34401" stroke="#416FB5" stroke-width="0.5" stroke-miterlimit="10"/>
<path d="M20.5448 77.9526L13.1487 75.4126" stroke="#416FB5" stroke-width="0.5" stroke-miterlimit="10"/>
<path d="M13.1487 75.4126L20.4138 71.7278" stroke="#416FB5" stroke-width="0.5" stroke-miterlimit="10"/>
<path d="M20.4138 71.7278L13.363 69.2474" stroke="#416FB5" stroke-width="0.5" stroke-miterlimit="10"/>
<path d="M13.363 69.2474L20.1637 65.7654" stroke="#416FB5" stroke-width="0.5" stroke-miterlimit="10"/>
<path d="M20.1637 65.7654L13.6965 63.4281" stroke="#416FB5" stroke-width="0.5" stroke-miterlimit="10"/>
<path d="M13.6965 63.4281L19.461 60.0415" stroke="#416FB5" stroke-width="0.5" stroke-miterlimit="10"/>
<path d="M19.4612 60.0415L14.0063 56.7741" stroke="#416FB5" stroke-width="0.5" stroke-miterlimit="10"/>
<path d="M14.0063 56.7741L19.4612 53.304" stroke="#416FB5" stroke-width="0.5" stroke-miterlimit="10"/>
<path d="M19.4612 53.304L14.0063 51.1336" stroke="#416FB5" stroke-width="0.5" stroke-miterlimit="10"/>
<path d="M14.0063 51.1336L19.4612 47.6397" stroke="#416FB5" stroke-width="0.5" stroke-miterlimit="10"/>
<path d="M19.4612 47.6397L14.6138 44.4557" stroke="#416FB5" stroke-width="0.5" stroke-miterlimit="10"/>
<path d="M14.6138 44.4557L19.2468 40.8425" stroke="#416FB5" stroke-width="0.5" stroke-miterlimit="10"/>
<path d="M19.2468 40.8425L14.9949 38.2191" stroke="#416FB5" stroke-width="0.5" stroke-miterlimit="10"/>
<path d="M14.9949 38.2191L19.2468 35.2498" stroke="#416FB5" stroke-width="0.5" stroke-miterlimit="10"/>
<path d="M19.2468 35.2498L14.7209 31.3504" stroke="#416FB5" stroke-width="0.5" stroke-miterlimit="10"/>
<path d="M14.7209 31.3504L19.2468 28.1664" stroke="#416FB5" stroke-width="0.5" stroke-miterlimit="10"/>
<path d="M19.2468 28.1664L14.9949 23.9331" stroke="#416FB5" stroke-width="0.5" stroke-miterlimit="10"/>
<path d="M14.9949 23.9331L19.2468 20.6896" stroke="#416FB5" stroke-width="0.5" stroke-miterlimit="10"/>
<path d="M19.2468 20.6896L15.2808 17.3268" stroke="#416FB5" stroke-width="0.5" stroke-miterlimit="10"/>
<path d="M15.2808 17.3268L19.2468 15.2757" stroke="#416FB5" stroke-width="0.5" stroke-miterlimit="10"/>
<path d="M19.2468 15.2757L15.2808 12.366" stroke="#416FB5" stroke-width="0.5" stroke-miterlimit="10"/>
<path d="M15.2808 12.366L19.3064 9.59949" stroke="#416FB5" stroke-width="0.5" stroke-miterlimit="10"/>
<path d="M19.3062 9.59947L15.5784 4.82954" stroke="#416FB5" stroke-width="0.5" stroke-miterlimit="10"/>
<path d="M15.5784 4.82955L18.282 3.33894" stroke="#416FB5" stroke-width="0.5" stroke-miterlimit="10"/>
<path d="M34.3487 75.2337H27.0835V66.0516H34.3487V67.888H29.4417V69.6648H33.3006V71.5012H29.4417V73.3973H34.3487V75.2337Z" fill="#010101"/>
<path d="M43.3884 75.2337H41.0302V71.5012H37.7549V75.2337H35.3967V66.0516H37.7549V69.6648H41.0302V66.0516H43.3884V75.2337Z" fill="#010101"/>
<path d="M52.2258 75.2337H44.9487V66.0516H52.2258V67.888H47.3188V69.6648H51.1777V71.5012H47.3188V73.3973H52.2258V75.2337Z" fill="#010101"/>
<path d="M53.2737 66.0516H58.7761C59.6932 66.0516 60.3602 66.2543 60.777 66.6717C61.1939 67.089 61.3964 67.7568 61.3964 68.675V69.9868C61.3964 70.905 61.1939 71.5728 60.777 71.9901C60.3602 72.4075 59.6932 72.6102 58.7761 72.6102H55.6319V75.2337H53.2737V66.0516ZM59.0382 68.675C59.0382 68.1504 58.7761 67.888 58.2521 67.888H55.6319V70.7738H58.2521C58.7761 70.7738 59.0382 70.5115 59.0382 69.9868V68.675Z" fill="#010101"/>
<path d="M64.9339 75.2337H62.5757V66.0516H69.7098V67.888H64.9339V75.2337Z" fill="#010101"/>
<path d="M77.9038 75.2337H70.6387V66.0516H77.9038V67.888H72.9969V69.6648H76.8557V71.5012H72.9969V73.3973H77.9038V75.2337Z" fill="#010101"/>
<path d="M83.4063 75.2337H81.0481V67.888H78.2969V66.0516H86.1575V67.888H83.4063V75.2337Z" fill="#010101"/>
<path d="M95.0664 75.2337H92.7082V69.5933L89.5639 75.2337H87.0747V66.0516H89.4329V71.692L92.5772 66.0516H95.0664V75.2337Z" fill="#010101"/>
<path d="M98.7347 69.8198C98.7347 70.0225 98.7942 70.1776 98.9133 70.2968C99.0324 70.4161 99.1872 70.4757 99.3897 70.4757H101.057C101.355 70.4757 101.653 70.4518 101.95 70.3922V66.0635H104.309V75.2456H101.95V72.2167C101.641 72.2763 101.307 72.3002 100.95 72.3002H98.8657C98.0082 72.3002 97.3769 72.0975 96.9839 71.7039C96.5789 71.3104 96.3765 70.6784 96.3765 69.8318V66.0635H98.7347V69.8198Z" fill="#010101"/>
<path d="M113.872 75.2337H111.514V71.5012H108.239V75.2337H105.881V66.0516H108.239V69.6648H111.514V66.0516H113.872V75.2337Z" fill="#010101"/>
<path d="M123.436 75.2337H121.078V69.5933L117.934 75.2337H115.445V66.0516H117.803V71.692L120.947 66.0516H123.436V75.2337Z" fill="#010101"/>
<path d="M130.642 75.2337V69.5933L127.498 75.2337H125.008V66.0516H127.367V71.692L130.511 66.0516H133V75.2337H130.642ZM128.284 65.3957C127.152 65.3957 126.58 64.8233 126.58 63.6905V63.297H128.284V63.6189C128.284 63.7501 128.331 63.8574 128.415 63.9409C128.498 64.0244 128.617 64.0721 128.736 64.0721H129.129C129.26 64.0721 129.367 64.0244 129.451 63.9409C129.534 63.8574 129.582 63.7382 129.582 63.6189V63.297H131.285V63.6905C131.285 64.8233 130.713 65.3957 129.582 65.3957H128.272H128.284Z" fill="#010101"/>
<path d="M29.4297 85.4533H32.574C33.4911 85.4533 34.158 85.656 34.5749 86.0734C34.9917 86.4907 35.1942 87.1585 35.1942 88.0767V88.4702C35.1942 89.3885 34.9917 90.0563 34.5749 90.4736C34.158 90.891 33.4911 91.0937 32.574 91.0937H27.0715V81.9116H34.3367V83.748H29.4297V85.4533ZM32.836 88.0767C32.836 87.552 32.574 87.2897 32.05 87.2897H29.4297V89.2573H32.05C32.574 89.2573 32.836 88.9949 32.836 88.4702V88.0767Z" fill="#030304"/>
<path d="M40.6966 91.0937H35.9802V89.2573H37.1593V83.748H35.9802V81.9116H40.6966V83.748H39.5175V89.2573H40.6966V91.0937Z" fill="#030304"/>
<path d="M49.0815 88.6968C49.0815 89.5435 48.879 90.1517 48.474 90.5452C48.0691 90.9387 47.4379 91.1414 46.5922 91.1414H43.186C42.5785 91.1414 41.9592 91.0818 41.3518 90.9745V89.2931H46.0682C46.2707 89.2931 46.4255 89.2334 46.5446 89.1261C46.6637 89.0188 46.7233 88.8638 46.7233 88.673V88.1721C46.7233 87.6713 46.4612 87.4328 45.9372 87.4328H42.7929V85.5964H45.6752C46.1992 85.5964 46.4612 85.334 46.4612 84.8093V84.547C46.4612 84.0223 46.1992 83.7599 45.6752 83.7599H41.4828V81.9235H46.3302C47.1878 81.9235 47.819 82.1143 48.212 82.5078C48.617 82.9014 48.8194 83.4857 48.8194 84.2846C48.8194 84.8093 48.7003 85.2386 48.4621 85.5606C48.2239 85.8945 47.9024 86.1211 47.5093 86.2522C47.6999 86.2999 47.8904 86.3834 48.081 86.5027C48.2716 86.61 48.4383 86.765 48.5812 86.9558C48.7242 87.1466 48.8433 87.3732 48.9385 87.6474C49.0338 87.9217 49.0815 88.2318 49.0815 88.5776V88.7087V88.6968Z" fill="#030304"/>
<path d="M58.2522 91.0937H55.894V87.3612H52.6187V91.0937H50.2605V81.9116H52.6187V85.5248H55.894V81.9116H58.2522V91.0937Z" fill="#030304"/>
<path d="M67.1013 91.0937H59.8362V81.9116H67.1013V83.748H62.1944V85.5248H66.0532V87.3612H62.1944V89.2573H67.1013V91.0937Z" fill="#030304"/>
<path d="M70.3767 91.1414C69.5191 91.1414 68.8879 90.9387 68.4949 90.5452C68.0899 90.1517 67.8875 89.5196 67.8875 88.673V84.5112C67.8875 83.6049 68.0899 82.9371 68.5068 82.5317C68.9236 82.1262 69.5906 81.9116 70.5077 81.9116H75.2241V83.748H71.0317C70.5077 83.748 70.2456 84.0104 70.2456 84.5351V88.7088C70.2456 88.9115 70.3052 89.0665 70.4243 89.1857C70.5434 89.305 70.6982 89.3646 70.9007 89.3646H72.8778C73.116 89.3646 73.3542 89.3288 73.5805 89.2573H75.236V90.9745C74.6524 91.0818 74.0688 91.1414 73.4971 91.1414H70.3886H70.3767Z" fill="#030304"/>
</g>
<defs>
<clipPath id="clip0_130_2">
<rect width="133" height="92" fill="white"/>
</clipPath>
</defs>
</svg>
